# xmcd
#
# Track frame offsets: 
#        150
#        18974
#        39364
#        56988
#        73188
#        88977
#        102488
#        120443
#        136173
#        152100
#        171310
#        188423
#        205270
#        225866
#        240560
#        257306
#        274010
#        289973
#
# Disc length: 4071 seconds
#
# Revision: 2
# Processed by: cddbd v1.5.1PL0 Copyright (c) Steve Scherf et al.
# Submitted via: ExactAudioCopy v0.95a4
#
DISCID=f60fe512
DTITLE=Razni Izvodjaci - Radio hitovi 2003
DYEAR=2003
DGENRE=Zabavna
TTITLE0=Colonia - C'est la vie
TTITLE1=Guiliano - Ako odes sad
TTITLE2=Danijela - Zivot stati nece
TTITLE3=Alan Hrzica - Zbog tebe mene ne vole
TTITLE4=Minea - Kad volim volim
TTITLE5=Boris novkovic - Nikad ne reci nikad
TTITLE6=Jole and Jele - Par koraka
TTITLE7=Donna - Kao da si lose vino
TTITLE8=Jasmin Stavros - Vucja vremena
TTITLE9=Electro team - Ja nikad necu znati
TTITLE10=Miroslav Skoro - Milo moje
TTITLE11=Magazin - Kad bi bio blizu
TTITLE12=Hari Mata Hari - Idi Idi
TTITLE13=Anika - Jako
TTITLE14=Kemal Monteno - Pusti me da placem
TTITLE15=Dora - Divlja i slobodna
TTITLE16=Hrvoje Sokcevic - Brojac zvezda
TTITLE17=Petar Dragojevic - Pametna i lijepa
EXTD=
EXTT0=
EXTT1=
EXTT2=
EXTT3=
EXTT4=
EXTT5=
EXTT6=
EXTT7=
EXTT8=
EXTT9=
EXTT10=
EXTT11=
EXTT12=
EXTT13=
EXTT14=
EXTT15=
EXTT16=
EXTT17=
PLAYORDER=
